<?xml version="1.0" standalone="no"?>
<!DOCTYPE svg PUBLIC "-//W3C//DTD SVG 20010904//EN"
 "http://www.w3.org/TR/2001/REC-SVG-20010904/DTD/svg10.dtd">
<svg version="1.0" xmlns="http://www.w3.org/2000/svg"
 width="700.000000pt" height="700.000000pt" viewBox="0 0 700.000000 700.000000"
 preserveAspectRatio="xMidYMid meet">
<metadata>
Created by potrace 1.11, written by Peter Selinger 2001-2013
</metadata>
<g transform="translate(0.000000,700.000000) scale(0.100000,-0.100000)"
fill="#000000" stroke="none">
<path d="M380 5659 c-176 -34 -336 -199 -369 -383 -15 -84 -15 -3468 0 -3552
33 -181 175 -332 356 -379 50 -13 439 -15 3133 -15 3359 0 3123 -4 3242 56 67
34 168 135 202 202 58 115 56 23 56 1903 0 1196 -3 1744 -11 1785 -34 188
-193 350 -378 384 -68 13 -6166 12 -6231 -1z m657 -1094 c54 -36 53 -10 53
-995 l0 -910 418 0 c253 0 431 -4 454 -10 112 -31 119 -181 12 -226 -27 -11
-131 -14 -530 -14 -542 0 -541 0 -581 58 -17 26 -18 79 -18 1032 0 951 1 1006
18 1031 38 57 116 72 174 34z m1548 9 c19 -9 42 -28 52 -42 17 -26 18 -79 18
-1022 0 -813 -2 -1001 -14 -1027 -34 -83 -156 -91 -208 -14 -17 24 -18 91 -21
1021 -2 933 -1 997 15 1030 18 35 71 70 106 70 11 0 34 -7 52 -16z m621 -9
c13 -8 30 -28 37 -43 8 -15 124 -378 257 -807 133 -429 246 -783 249 -788 4
-4 142 351 306 790 164 439 304 808 312 820 38 58 132 65 184 14 58 -59 74 -6
-331 -1086 -213 -568 -381 -1000 -393 -1013 -33 -35 -86 -47 -129 -29 -20 9
-44 27 -53 40 -25 39 -625 1965 -625 2008 0 40 36 93 74 110 27 11 82 4 112
-16z m2895 2 c49 -33 66 -114 35 -163 -40 -60 -30 -59 -508 -62 l-438 -3 0
-359 0 -360 315 0 c339 0 354 -2 389 -52 21 -29 21 -107 0 -136 -35 -50 -50
-52 -389 -52 l-315 0 0 -360 0 -359 438 -3 c478 -3 468 -2 508 -62 31 -49 14
-130 -35 -163 -24 -17 -64 -18 -526 -21 -337 -2 -512 0 -537 8 -20 6 -48 24
-62 41 l-26 31 0 1007 c0 1113 -5 1030 64 1072 30 19 52 19 546 17 477 -3 517
-4 541 -21z"/>
</g>
</svg>
